<svg xmlns="http://www.w3.org/2000/svg" width="191.22" height="129.312" viewBox="0 0 191.22 129.312"><defs><style>.a{fill:#423f38;}</style></defs><g transform="translate(-773.39 -59.752)"><path class="a" d="M86.279,11.29a21.008,21.008,0,0,1,1.1,3.977,23.254,23.254,0,0,1,.324,4.593,28.708,28.708,0,0,1-.643,5.246,38.65,38.65,0,0,1-1.8,5.936C83.378,35.9,81.981,39.789,80.947,43.1a63.813,63.813,0,0,0-2.128,8.579,49.074,49.074,0,0,0-.645,7.419c-.045,2.537.042,5.267.145,8.575a42.38,42.38,0,0,0,1.23,8.813c.629,2.576,1.391,4.8,2.022,6.691a22.776,22.776,0,0,1,1.24,4.717,2.913,2.913,0,0,1-1.115,2.89,2.074,2.074,0,0,1-.47.241,1.571,1.571,0,0,1-.511.091,1.675,1.675,0,0,1-.557-.094,2.522,2.522,0,0,1-.608-.314c-.071-.048-.142-.1-.214-.153s-.142-.109-.212-.165-.137-.112-.2-.167-.127-.11-.185-.162c-.189-.208-.368-.426-.536-.653s-.328-.461-.478-.7-.292-.487-.426-.738-.261-.506-.381-.762q-.332-.674-.619-1.362t-.542-1.385c-.17-.465-.331-.933-.485-1.4s-.3-.942-.446-1.414c-.045.125-.092.248-.142.367s-.1.235-.164.347a2.991,2.991,0,0,1-.2.327,2.634,2.634,0,0,1-.254.307,2.244,2.244,0,0,1-.236.217,2.066,2.066,0,0,1-.264.179,1.9,1.9,0,0,1-.288.134,1.781,1.781,0,0,1-.309.082,2.5,2.5,0,0,1-.315.034,2.78,2.78,0,0,1-.311,0c-.1-.007-.207-.019-.31-.036s-.208-.037-.313-.061a1.553,1.553,0,0,1-.281-.079,2.191,2.191,0,0,1-.571-.322,1.593,1.593,0,0,1-.23-.22c-.078-.074-.15-.15-.218-.227s-.13-.156-.189-.236-.115-.16-.17-.242-.107-.163-.16-.244c-.106-.163-.2-.33-.291-.5s-.172-.341-.25-.517-.152-.354-.224-.535-.142-.366-.214-.554q-.189-.55-.356-1.1t-.314-1.094q-.146-.547-.272-1.1t-.233-1.1q-.095-.516-.185-1.023t-.171-1.011q-.081-.5-.149-1.008t-.119-1.012a4.19,4.19,0,0,1-.724-.007,4.4,4.4,0,0,1-.7-.125,4.873,4.873,0,0,1-.666-.229,5.535,5.535,0,0,1-.631-.318,5.059,5.059,0,0,1-.64-.513,5.845,5.845,0,0,1-.551-.6,6.74,6.74,0,0,1-.464-.655,7.534,7.534,0,0,1-.379-.686,10.169,10.169,0,0,1-.456-1.265,12.112,12.112,0,0,1-.293-1.278c-.075-.427-.129-.856-.169-1.284s-.067-.857-.086-1.284l-.18.1c-.06.031-.121.062-.181.091s-.122.056-.184.082-.125.048-.189.067a4.065,4.065,0,0,1-.442.11,2.915,2.915,0,0,1-.471.05,2.135,2.135,0,0,1-.478-.042,1.73,1.73,0,0,1-.464-.166,2.12,2.12,0,0,1-.431-.232,2.419,2.419,0,0,1-.353-.3,3.427,3.427,0,0,1-.3-.352c-.091-.123-.175-.251-.256-.38s-.133-.263-.193-.392-.117-.257-.17-.384-.1-.253-.148-.38-.088-.253-.127-.381c-.107-.442-.193-.883-.262-1.324s-.119-.881-.156-1.32-.059-.877-.071-1.314-.012-.873-.006-1.308c-.047.028-.092.053-.136.074s-.087.04-.131.057-.088.032-.134.047l-.145.045a2.248,2.248,0,0,1-.473.051,2.177,2.177,0,0,1-.468-.05,2.116,2.116,0,0,1-.855-.4,2.817,2.817,0,0,1-.586-.675,3.228,3.228,0,0,1-.342-.765,4.825,4.825,0,0,1-.167-.808c-.034-.271-.051-.542-.061-.8a8.749,8.749,0,0,1,.084-1.241,10.883,10.883,0,0,1,.24-1.21c.1-.4.222-.789.356-1.173s.28-.76.432-1.128c-.055,0-.11.006-.165.007s-.111,0-.168,0a1.349,1.349,0,0,1-.174-.022,1.219,1.219,0,0,1-.183-.051,2,2,0,0,1-.468-.2,2.13,2.13,0,0,1-.393-.293,2.226,2.226,0,0,1-.309-.361,2.133,2.133,0,0,1-.216-.4,3.6,3.6,0,0,1-.189-.476,3.659,3.659,0,0,1-.116-.477,3.974,3.974,0,0,1-.053-.476,4.552,4.552,0,0,1,0-.471c-2.252.886-4.168,1.742-5.89,2.623a46.118,46.118,0,0,0-4.725,2.779c-1.476.989-2.9,2.06-4.415,3.268s-3.12,2.553-4.957,4.092a41.985,41.985,0,0,0-6.117,6.4c-1.619,2.081-2.88,4.047-3.964,5.709a22.6,22.6,0,0,1-2.907,3.88,2.9,2.9,0,0,1-2.944.914,1.751,1.751,0,0,1-.473-.21,1.59,1.59,0,0,1-.393-.354,1.69,1.69,0,0,1-.272-.506,4.681,4.681,0,0,1-.13-.917c0-.087,0-.177,0-.265s.01-.175.017-.258.014-.162.02-.233a7.424,7.424,0,0,1,.17-.824c.072-.272.157-.542.253-.808s.2-.528.312-.784.228-.508.348-.754q.318-.661.671-1.3t.733-1.27q.38-.628.783-1.244T18.43,62.9a2.8,2.8,0,0,1-.369.125,3.227,3.227,0,0,1-.374.074c-.126.018-.255.029-.386.036s-.266.01-.4.011a2.456,2.456,0,0,1-.3-.053,2.207,2.207,0,0,1-.3-.1A1.865,1.865,0,0,1,16,62.855a1.559,1.559,0,0,1-.254-.194c-.078-.074-.153-.148-.224-.225s-.138-.155-.2-.237a2.775,2.775,0,0,1-.176-.255,2.5,2.5,0,0,1-.147-.28,2.115,2.115,0,0,1-.106-.278,2.572,2.572,0,0,1-.073-.308,2.533,2.533,0,0,1-.035-.32,2.07,2.07,0,0,1,.009-.312c.011-.1.026-.2.044-.3s.039-.192.062-.286.049-.187.075-.28.054-.184.081-.276q.1-.282.217-.548t.247-.52q.13-.254.274-.5t.3-.48c.192-.324.4-.641.611-.951s.436-.616.664-.916.46-.594.694-.883.47-.574.7-.855q.337-.4.678-.782t.69-.759q.349-.374.709-.734t.733-.7a3.968,3.968,0,0,1-.442-.56,4.232,4.232,0,0,1-.565-1.3,4.046,4.046,0,0,1-.108-.694,4.444,4.444,0,0,1,0-.812,5.481,5.481,0,0,1,.129-.8,6.739,6.739,0,0,1,.232-.77c.091-.249.195-.49.305-.719a10.42,10.42,0,0,1,.7-1.139,11.793,11.793,0,0,1,.818-1.028c.289-.326.594-.636.91-.931s.643-.578.978-.848a1.715,1.715,0,0,1-.182-.079c-.059-.03-.118-.062-.177-.1l-.18-.106c-.061-.036-.125-.072-.191-.108a2.773,2.773,0,0,1-.357-.264,2.677,2.677,0,0,1-.328-.341,2.352,2.352,0,0,1-.267-.412,2.058,2.058,0,0,1-.172-.478,2.179,2.179,0,0,1-.091-.486,2.365,2.365,0,0,1,.015-.466,3.137,3.137,0,0,1,.093-.449c.041-.147.091-.291.145-.433a4.243,4.243,0,0,1,.178-.4c.064-.128.133-.25.2-.37s.145-.236.219-.353.15-.234.224-.355c.278-.364.569-.708.871-1.037s.615-.641.936-.942.652-.591.988-.874.68-.56,1.027-.834a.82.82,0,0,1-.132-.053,1.129,1.129,0,0,1-.122-.072c-.039-.026-.078-.055-.115-.084l-.112-.09a1.678,1.678,0,0,1-.336-.318,2.023,2.023,0,0,1-.254-.407,2.092,2.092,0,0,1-.155-.458,1.838,1.838,0,0,1-.039-.473,2.875,2.875,0,0,1,.174-.89,3.284,3.284,0,0,1,.391-.742,5.057,5.057,0,0,1,.521-.625c.185-.192.378-.37.563-.539a10.04,10.04,0,0,1,1.04-.693,11.785,11.785,0,0,1,1.083-.554c.367-.165.739-.313,1.115-.449s.756-.26,1.137-.377a1.664,1.664,0,0,1-.114-.133,1.47,1.47,0,0,1-.094-.138,1.35,1.35,0,0,1-.075-.144,1.294,1.294,0,0,1-.056-.15,2.111,2.111,0,0,1-.125-.469,2.426,2.426,0,0,1,.053-.969A2.057,2.057,0,0,1,32,22.926a4.112,4.112,0,0,1,.485-.721,4.527,4.527,0,0,1,.586-.579,5.716,5.716,0,0,1,.653-.464c.225-.138.455-.262.685-.375s.463-.216.7-.312.476-.183.719-.265.49-.158.74-.23.5-.14.763-.206l.47-.1q.235-.05.472-.1t.475-.088q.238-.041.479-.074c-.049-.069-.095-.138-.137-.21a2.2,2.2,0,0,1-.114-.222,1.987,1.987,0,0,1-.088-.241,2.053,2.053,0,0,1-.059-.265,2.13,2.13,0,0,1-.016-.581,2.228,2.228,0,0,1,.128-.536,2.457,2.457,0,0,1,.24-.477,2.607,2.607,0,0,1,.32-.4,4.777,4.777,0,0,1,.754-.627,5.725,5.725,0,0,1,.836-.464,7.381,7.381,0,0,1,.877-.33c.295-.091.589-.164.877-.225s.6-.119.9-.165.6-.082.9-.111.595-.051.89-.067.588-.026.879-.032l.59-.014c.2,0,.4-.009.6-.012s.4,0,.6,0,.4.006.6.015a.909.909,0,0,1-.065-.106,1.182,1.182,0,0,1-.05-.11c-.015-.037-.028-.075-.041-.113s-.024-.076-.036-.115-.031-.1-.046-.153-.028-.1-.04-.149-.021-.1-.027-.143a.842.842,0,0,1-.008-.133q-.528-.152-1.035-.308t-.989-.311q-.482-.155-.935-.307t-.874-.294c-1.014-.26.047-.514,2.467-.731s6.2-.4,10.622-.516,9.493-.166,14.487-.121S82.155,11.022,86.279,11.29Z" transform="translate(776.968 81.078)"/><path class="a" d="M225,191.377c-.587-18.423-13.35-37.541-19.438-45.658,2.4.053,4.219.107,5.18.107,0,0,.481-.16.427-.481-.053-.267-.748-.694-3.2-1.121a8.116,8.116,0,0,0,3.311-4.325c3.631-9.185,2.884-14.792,6.942-18.637,0,0-7.423-.854-11.588,7.69-2.777,5.714-.961,7.53-3.631,9.4a3.6,3.6,0,0,0-3.631-2.189,20.176,20.176,0,0,0-2.67-6.088,19.643,19.643,0,0,0-13.083-8.971c4.058,3.845,2.937,9.719,6.782,16.661a10.075,10.075,0,0,0,3.418,3.791c-11.588-2.35-26.327-5.447-27.234-5.607a20.623,20.623,0,0,0-4.325-3.257c-7.316-4.165-13.51.908-16.928,4.913-8.224,7.209-14.923,6.782-29.554,6.622-8.054.384-35.541,9.187-35.488,9.347-.061.04-.513.219-.849.414-.922.565-1.976.794-2.889,1.454-3.578,2.189-13.19,7.583-21.467,8.277q-1.282.08-3.044.32c-.16,0-.32.053-.481.053a36.907,36.907,0,0,0-5.874,1.175,15.89,15.89,0,0,0-2.777,1.121,5.879,5.879,0,0,0-2.083,1.709c-.053.107-.16.214-.214.32h0a1.889,1.889,0,0,0,.214,1.335,2.722,2.722,0,0,0,1.015.908,5.775,5.775,0,0,0,2.3.534,2.322,2.322,0,0,0-.214.374,1.039,1.039,0,0,0,0,.8,1.158,1.158,0,0,0,.534.587,2.762,2.762,0,0,0,.694.32,8.58,8.58,0,0,0,2.35.267c-.053.107-.107.16-.107.267a1.053,1.053,0,0,0,.16.8,1.621,1.621,0,0,0,1.282.534,6.571,6.571,0,0,0,2.083-.427v.32a.92.92,0,0,0,.534.641,2.24,2.24,0,0,0,1.442.107,5.168,5.168,0,0,0,1.282-.427c.267-.107.481-.267.748-.374a1.006,1.006,0,0,0,.107.427,1.051,1.051,0,0,0,.8.534,2.717,2.717,0,0,0,1.6-.32,8.03,8.03,0,0,0,1.335-.8c.267-.214.534-.427.854-.641a.4.4,0,0,0,.053.214.84.84,0,0,0,.534.587,1.642,1.642,0,0,0,1.335-.053,5.921,5.921,0,0,0,1.6-.908v.053a.866.866,0,0,0,.374.748,1.358,1.358,0,0,0,.748.16,2.65,2.65,0,0,0,.694-.16,5.586,5.586,0,0,0,1.228-.694l1.121-.8a29.77,29.77,0,0,1,3.791-2.136c1.869.481,4.058.854,6.355,1.228a7.249,7.249,0,0,0,.16,1.549c-3.685,4.325-9.185,10.52-13.083,14.418a21.878,21.878,0,0,0-5.981,4.7l-.053.053c-3.685,2.617-8.865,6.141-13.03,8.758a3.169,3.169,0,0,1-.427.214c-.32.16-.587.32-.8.427a.581.581,0,0,0-.267.053,15.773,15.773,0,0,1-3.631.053,13.143,13.143,0,0,0,2.189.694.186.186,0,0,0-.107.053,13.417,13.417,0,0,1-2.189.374c-.481,0-1.068-.053-1.762-.107h-.107a12.9,12.9,0,0,1-1.869-.641c-.32-.107,1.335,1.388,3.311,1.442v.053c-1.228.534-2.83.534-5.927.16-.32-.053.587,1.068,3.151,1.228a12.032,12.032,0,0,0,2.83-.053,5.391,5.391,0,0,1-.8.374,3.125,3.125,0,0,1-.694-.107c-.107,0-.053.107.107.267-1.335.374-2.4.214-2.4.427s1.6.587,3.471.16a8.127,8.127,0,0,0,1.976.374,12.032,12.032,0,0,0,2.83-.053c-1.922,1.068-3.738.748-3.791.961s2.456.8,4.7-.32a8.4,8.4,0,0,0,3.151-2.136c2.723-1.655,11.428-7,16.608-10.413a7.575,7.575,0,0,0,4.592-3.257,1.117,1.117,0,0,0,.214-.32c2.723-2.617,10.039-9.826,14.9-14.632A30.83,30.83,0,0,0,93,174.4c.053-.053.107-.053.16-.107,16.821.481,21.788-7.53,25.632-10.573,5.233-4.165,7.636-7.369,16.234-11.855,7.636-3.952,12.5-5.02,13.457-5.18h.16c4.165-.16,4.753-.481,12.015-.8a10.926,10.926,0,0,0,5.447-1.655h.053s13.991.641,26.433,1.068c-5.927,7.85-19.117,27.341-19.758,46.085-.748,22,9.612,30.972,25.9,30.972C215.124,222.349,225.751,213.378,225,191.377Zm-155.984-1.5a21.878,21.878,0,0,0-5.981,4.7l-.053.053c-3.685,2.617-8.865,6.141-13.03,8.758a3.171,3.171,0,0,1-.427.214c-.32.16-.587.32-.8.427a.581.581,0,0,0-.267.053,15.774,15.774,0,0,1-3.631.053,13.145,13.145,0,0,0,2.189.694.186.186,0,0,0-.107.053,13.421,13.421,0,0,1-2.189.374c-.481,0-.961-.053-1.6-.107.481-.374.748-.694.854-.748,2.723-1.655,11.428-7,16.608-10.413a7.575,7.575,0,0,0,4.592-3.257,1.117,1.117,0,0,0,.214-.32c2.723-2.617,10.039-9.826,14.9-14.632a8.461,8.461,0,0,0,1.816-.374v.107C78.418,179.736,72.918,185.93,69.02,189.882ZM41.091,206.329a7.859,7.859,0,0,0,1.5-.854,4.235,4.235,0,0,0,1.709.374v.053A6.829,6.829,0,0,1,41.091,206.329ZM198.2,161.472c-10.2,0-5.073-11.107-2.3-16.074.534,0,1.068.053,1.655.053a5.143,5.143,0,0,0,2.83.107,7.888,7.888,0,0,1,1.121.053C203.963,150.685,208.235,161.472,198.2,161.472Z" transform="translate(739.57 -61.349)"/></g></svg>