<svg xmlns="http://www.w3.org/2000/svg" xmlns:xlink="http://www.w3.org/1999/xlink" width="218" height="168.742" viewBox="0 0 218 168.742"><defs><style>.a,.b{fill:#423f38;}.a{font-size:40px;font-family:FairwaterScript-Bold, Fairwater Script;font-weight:700;}.c{filter:url(#a);}</style><filter id="a" x="0" y="68.742" width="218" height="100" filterUnits="userSpaceOnUse"><feOffset dy="3" input="SourceAlpha"/><feGaussianBlur stdDeviation="1.5" result="b"/><feFlood flood-color="#423f38" flood-opacity="0.678"/><feComposite operator="in" in2="b"/><feComposite in="SourceGraphic"/></filter></defs><g transform="translate(4.5)"><g class="c" transform="matrix(1, 0, 0, 1, -4.5, 0)"><text class="a" transform="translate(4.5 123.24)"><tspan x="0" y="0">Baby Bliss</tspan></text></g><g transform="translate(64.674)"><path class="b" d="M119.371,125.436c-.27-8.462-6.128-17.243-8.923-20.971,1.1.025,1.937.049,2.378.049,0,0,.221-.074.2-.221-.025-.123-.343-.319-1.471-.515a3.728,3.728,0,0,0,1.52-1.987c1.667-4.219,1.324-6.794,3.187-8.56,0,0-3.407-.392-5.319,3.532-1.275,2.624-.441,3.458-1.667,4.317a1.653,1.653,0,0,0-1.667-1.006,9.269,9.269,0,0,0-1.226-2.8,9.016,9.016,0,0,0-6.006-4.121c1.863,1.766,1.348,4.464,3.113,7.653a4.627,4.627,0,0,0,1.569,1.741c-5.319-1.079-12.085-2.5-12.5-2.575a9.468,9.468,0,0,0-1.986-1.5c-3.358-1.913-6.2.417-7.771,2.257-3.775,3.311-6.5,3.041-13.213,2.968.172-2.4-.539-5.273-3.089-8.511-5.883-7.505-6.349-9.271-7.942-15.133s.392-9.909-1.618-10.6a.8.8,0,0,0-.932.319,3.744,3.744,0,0,0-.27.392,5.222,5.222,0,0,0-.417,1.5,16.926,16.926,0,0,0-.172,2.723,1.64,1.64,0,0,0-.515-.491.911.911,0,0,0-.564-.123,1.431,1.431,0,0,0-.539.2.926.926,0,0,0-.392.417,2.217,2.217,0,0,0-.2.515,4.973,4.973,0,0,0-.147,1.055,14.693,14.693,0,0,0,.074,2.085c.074.638.147,1.251.27,1.864a2.132,2.132,0,0,0-1.1.662,2.847,2.847,0,0,0-.564,1.349,6.408,6.408,0,0,0,.245,2.379,1.892,1.892,0,0,0-.368-.049,1.119,1.119,0,0,0-.809.27,1.319,1.319,0,0,0-.417.736,4.2,4.2,0,0,0-.074.76,9.543,9.543,0,0,0,.49,2.379,1,1,0,0,0-.27-.025.991.991,0,0,0-.735.417,1.789,1.789,0,0,0-.1,1.5,5.673,5.673,0,0,0,1.128,1.938.755.755,0,0,0-.294.123.989.989,0,0,0-.441.736,1.763,1.763,0,0,0,.1.883c-4.437-.343-6.447-1.2-10.516-2.919-5.589-2.379-7.526-6.451-9.315-5.3a.786.786,0,0,0-.319.932,2.332,2.332,0,0,0,.147.441,5.1,5.1,0,0,0,.907,1.251,17.675,17.675,0,0,0,2.01,1.815,1.784,1.784,0,0,0-.711.1.921.921,0,0,0-.441.368,1.432,1.432,0,0,0-.2.54,1.127,1.127,0,0,0,.074.564,2.89,2.89,0,0,0,.27.466,4.333,4.333,0,0,0,.735.76,13.228,13.228,0,0,0,1.667,1.226,15.636,15.636,0,0,0,1.642.932,1.918,1.918,0,0,0-.147,1.275,2.738,2.738,0,0,0,.711,1.275,5.93,5.93,0,0,0,2.035,1.275,2.8,2.8,0,0,0-.27.27,1.134,1.134,0,0,0-.294.809,1.257,1.257,0,0,0,.319.785,3.884,3.884,0,0,0,.564.54,9.606,9.606,0,0,0,2.182,1.1.661.661,0,0,0-.172.2.916.916,0,0,0-.123.834,1.842,1.842,0,0,0,1.1,1.006,6.252,6.252,0,0,0,2.206.319.653.653,0,0,0-.074.294,1.071,1.071,0,0,0,.294.809,2.338,2.338,0,0,0,1.348.613,6.839,6.839,0,0,0,1.422.049c.294-.025.588-.049.882-.1a.98.98,0,0,0-.049.466,1.067,1.067,0,0,0,.564.785,2.946,2.946,0,0,0,1.691.27,8.589,8.589,0,0,0,1.618-.319c.343-.1.711-.2,1.054-.319a.679.679,0,0,0-.025.221.92.92,0,0,0,.025.27c-.564.368-1.079.736-1.52,1.055-1.642,1.006-6.055,3.483-9.854,3.8q-.588.037-1.4.147c-.074,0-.147.025-.221.025a16.933,16.933,0,0,0-2.7.54,7.291,7.291,0,0,0-1.275.515,2.7,2.7,0,0,0-.956.785c-.025.049-.074.1-.1.147h0a.868.868,0,0,0,.1.613,1.25,1.25,0,0,0,.466.417,2.65,2.65,0,0,0,1.054.245,1.065,1.065,0,0,0-.1.172.477.477,0,0,0,0,.368.532.532,0,0,0,.245.27,1.267,1.267,0,0,0,.319.147,3.936,3.936,0,0,0,1.079.123c-.025.049-.049.074-.049.123a.484.484,0,0,0,.074.368.744.744,0,0,0,.588.245,3.015,3.015,0,0,0,.956-.2v.147a.422.422,0,0,0,.245.294,1.028,1.028,0,0,0,.662.049,2.371,2.371,0,0,0,.588-.2c.123-.049.221-.123.343-.172a.462.462,0,0,0,.049.2.483.483,0,0,0,.368.245,1.247,1.247,0,0,0,.735-.147,3.687,3.687,0,0,0,.613-.368c.123-.1.245-.2.392-.294a.185.185,0,0,0,.025.1.386.386,0,0,0,.245.27.753.753,0,0,0,.613-.025,2.718,2.718,0,0,0,.735-.417v.025a.4.4,0,0,0,.172.343.623.623,0,0,0,.343.074,1.216,1.216,0,0,0,.319-.074,2.564,2.564,0,0,0,.564-.319l.515-.368a13.665,13.665,0,0,1,1.74-.981c.858.221,1.863.392,2.917.564a3.331,3.331,0,0,0,.074.711c-1.691,1.987-4.216,4.832-6.006,6.622a10.043,10.043,0,0,0-2.745,2.158l-.025.025c-1.691,1.2-4.069,2.821-5.981,4.023a1.454,1.454,0,0,1-.2.1c-.147.074-.27.147-.368.2a.266.266,0,0,0-.123.025,7.236,7.236,0,0,1-1.667.025,6.031,6.031,0,0,0,1.005.319.086.086,0,0,0-.049.025,6.157,6.157,0,0,1-1.005.172c-.221,0-.49-.025-.809-.049H33.7a5.918,5.918,0,0,1-.858-.294,2.164,2.164,0,0,0,1.52.662v.025a5.4,5.4,0,0,1-2.721.074c-.147-.025.27.491,1.446.564a5.519,5.519,0,0,0,1.3-.025,2.472,2.472,0,0,1-.368.172,1.434,1.434,0,0,1-.319-.049c-.049,0-.025.049.049.123-.613.172-1.1.1-1.1.2a2.227,2.227,0,0,0,1.593.074,3.73,3.73,0,0,0,.907.172,5.52,5.52,0,0,0,1.3-.025,5.432,5.432,0,0,1-1.74.441,2.6,2.6,0,0,0,2.157-.147,3.856,3.856,0,0,0,1.446-.981c1.25-.76,5.246-3.213,7.624-4.783a3.477,3.477,0,0,0,2.108-1.5.513.513,0,0,0,.1-.147c1.25-1.2,4.608-4.513,6.839-6.721a14.147,14.147,0,0,0,3.8-1.275c.025-.025.049-.025.074-.049,7.722.221,10-3.458,11.766-4.856,2.4-1.913,3.505-3.385,7.452-5.445a23.671,23.671,0,0,1,6.177-2.379h.074c1.912-.074,2.182-.221,5.515-.368a5.013,5.013,0,0,0,2.5-.76h.025s6.422.294,12.134.491c-2.721,3.606-8.776,12.558-9.07,21.167-.343,10.105,4.412,14.226,11.889,14.226C114.836,139.662,119.714,135.542,119.371,125.436Zm-71.6-.687a10.044,10.044,0,0,0-2.745,2.158l-.025.025c-1.691,1.2-4.069,2.821-5.981,4.023a1.451,1.451,0,0,1-.2.1c-.147.074-.27.147-.368.2a.266.266,0,0,0-.123.025,7.237,7.237,0,0,1-1.667.025,6.032,6.032,0,0,0,1.005.319.086.086,0,0,0-.049.025,6.16,6.16,0,0,1-1.005.172c-.221,0-.441-.025-.735-.049.221-.172.343-.319.392-.343,1.25-.76,5.246-3.213,7.624-4.783a3.477,3.477,0,0,0,2.108-1.5.513.513,0,0,0,.1-.147c1.25-1.2,4.608-4.513,6.839-6.721a3.88,3.88,0,0,0,.833-.172v.049C52.083,120.089,49.558,122.935,47.768,124.75ZM34.948,132.3a3.608,3.608,0,0,0,.686-.392,1.943,1.943,0,0,0,.784.172v.025A3.133,3.133,0,0,1,34.948,132.3Zm72.117-20.6c-4.682,0-2.329-5.1-1.054-7.383.245,0,.49.025.76.025a2.359,2.359,0,0,0,1.3.049,3.619,3.619,0,0,1,.515.025C109.713,106.746,111.674,111.7,107.065,111.7Z" transform="translate(-29.736 -69.42)"/></g></g></svg>