<svg xmlns="http://www.w3.org/2000/svg" width="36.448" height="24.524" viewBox="0 0 36.448 24.524"><defs><style>.a{fill:#423f38;}</style></defs><g transform="translate(-773.39 -59.752)"><path class="a" d="M16.392,2.142A4,4,0,0,1,16.6,2.9a4.419,4.419,0,0,1,.062.87,5.439,5.439,0,0,1-.121.994,7.306,7.306,0,0,1-.34,1.124c-.354.92-.618,1.657-.813,2.284a12.092,12.092,0,0,0-.4,1.626,9.323,9.323,0,0,0-.121,1.408c-.008.482.009,1,.029,1.628a8.072,8.072,0,0,0,.234,1.674c.12.489.264.911.384,1.271a4.341,4.341,0,0,1,.236.9.553.553,0,0,1-.211.549.391.391,0,0,1-.089.046.3.3,0,0,1-.1.017.317.317,0,0,1-.106-.018.478.478,0,0,1-.115-.06l-.041-.029-.04-.031-.038-.032-.035-.031c-.036-.04-.07-.081-.1-.124s-.062-.088-.091-.133-.055-.093-.081-.14-.05-.1-.072-.145q-.063-.128-.118-.259t-.1-.263c-.032-.088-.063-.177-.092-.267s-.057-.179-.085-.269c-.009.024-.017.047-.027.07s-.02.045-.031.066a.567.567,0,0,1-.038.062.5.5,0,0,1-.048.058.424.424,0,0,1-.045.041.391.391,0,0,1-.05.034.359.359,0,0,1-.055.025.337.337,0,0,1-.059.016.473.473,0,0,1-.06.006.526.526,0,0,1-.059,0l-.059-.007-.059-.012a.294.294,0,0,1-.053-.015.417.417,0,0,1-.108-.061.3.3,0,0,1-.044-.042c-.015-.014-.029-.028-.041-.043s-.025-.03-.036-.045l-.032-.046-.03-.046c-.02-.031-.038-.063-.055-.095s-.033-.065-.047-.1-.029-.067-.043-.1l-.041-.105q-.036-.1-.068-.208t-.06-.208q-.028-.1-.052-.208t-.044-.21q-.018-.1-.035-.194t-.033-.192q-.015-.1-.028-.192t-.023-.192a.793.793,0,0,1-.137,0,.835.835,0,0,1-.132-.024.925.925,0,0,1-.126-.044,1.053,1.053,0,0,1-.12-.061.964.964,0,0,1-.121-.1,1.114,1.114,0,0,1-.1-.114,1.285,1.285,0,0,1-.088-.125,1.437,1.437,0,0,1-.072-.131,1.939,1.939,0,0,1-.087-.24,2.307,2.307,0,0,1-.056-.243c-.014-.081-.025-.163-.032-.244s-.013-.163-.016-.244l-.034.018L11.61,12l-.035.015-.036.013a.769.769,0,0,1-.084.021.552.552,0,0,1-.089.009.405.405,0,0,1-.091-.008.329.329,0,0,1-.088-.032.4.4,0,0,1-.082-.044.461.461,0,0,1-.067-.058.653.653,0,0,1-.056-.067c-.017-.023-.033-.048-.049-.072s-.025-.05-.037-.075-.022-.049-.032-.073-.019-.048-.028-.072-.017-.048-.024-.072c-.02-.084-.037-.168-.05-.252s-.023-.167-.03-.251-.011-.167-.014-.25,0-.166,0-.249l-.026.014-.025.011-.025.009-.027.009a.426.426,0,0,1-.09.009.413.413,0,0,1-.089-.01.4.4,0,0,1-.162-.077.538.538,0,0,1-.111-.129.616.616,0,0,1-.065-.146.919.919,0,0,1-.032-.154c-.007-.052-.01-.1-.012-.153a1.662,1.662,0,0,1,.016-.236,2.064,2.064,0,0,1,.045-.23c.019-.075.042-.15.068-.223s.053-.144.082-.214H10.2l-.033,0a.232.232,0,0,1-.035-.01.381.381,0,0,1-.089-.038.407.407,0,0,1-.075-.056.425.425,0,0,1-.059-.069.407.407,0,0,1-.041-.076.686.686,0,0,1-.036-.091.7.7,0,0,1-.022-.091.757.757,0,0,1-.01-.09.865.865,0,0,1,0-.09c-.428.167-.792.328-1.119.495a8.729,8.729,0,0,0-.9.525c-.281.187-.551.39-.839.619s-.593.484-.943.776a7.962,7.962,0,0,0-1.165,1.215c-.308.4-.549.769-.755,1.085a4.292,4.292,0,0,1-.554.738.552.552,0,0,1-.561.173.335.335,0,0,1-.09-.04.3.3,0,0,1-.075-.068.323.323,0,0,1-.052-.1.891.891,0,0,1-.025-.175c0-.017,0-.034,0-.05s0-.033,0-.049l0-.044a1.411,1.411,0,0,1,.032-.157c.014-.052.03-.1.048-.154s.038-.1.06-.149.044-.1.066-.143q.061-.126.128-.248t.14-.242q.072-.119.149-.237t.156-.233a.532.532,0,0,1-.07.024.614.614,0,0,1-.071.014c-.024,0-.049.005-.074.007l-.077,0a.469.469,0,0,1-.058-.01.422.422,0,0,1-.058-.018.357.357,0,0,1-.054-.027A.3.3,0,0,1,3,11.851l-.043-.043c-.014-.015-.026-.03-.038-.045a.531.531,0,0,1-.034-.049.478.478,0,0,1-.028-.053.4.4,0,0,1-.02-.053.49.49,0,0,1-.014-.059.482.482,0,0,1-.007-.061.394.394,0,0,1,0-.059c0-.019,0-.038.008-.056s.007-.037.012-.054.009-.036.014-.053l.015-.053q.019-.054.041-.1t.047-.1q.025-.048.052-.095t.057-.091c.037-.062.076-.122.116-.181s.083-.117.127-.174.088-.113.132-.168l.134-.162q.064-.075.129-.148t.132-.144q.067-.071.135-.139t.14-.134a.758.758,0,0,1-.084-.107.807.807,0,0,1-.108-.248A.77.77,0,0,1,3.9,9.086a.844.844,0,0,1,0-.155,1.04,1.04,0,0,1,.025-.152,1.278,1.278,0,0,1,.044-.146c.017-.047.037-.093.058-.137a1.974,1.974,0,0,1,.133-.216,2.233,2.233,0,0,1,.156-.2c.055-.062.113-.121.173-.177s.122-.109.186-.161l-.035-.015-.034-.018-.034-.02-.036-.021a.531.531,0,0,1-.068-.05.512.512,0,0,1-.063-.065.449.449,0,0,1-.051-.079.393.393,0,0,1-.033-.091A.415.415,0,0,1,4.306,7.3a.449.449,0,0,1,0-.089.6.6,0,0,1,.018-.085c.008-.028.017-.055.028-.082a.8.8,0,0,1,.034-.077c.012-.024.025-.047.039-.07l.042-.067.043-.067c.053-.069.108-.134.166-.2s.117-.121.178-.178.124-.112.188-.166.129-.106.2-.158l-.025-.01L5.19,6.035l-.022-.016L5.147,6a.321.321,0,0,1-.064-.061.387.387,0,0,1-.048-.078.4.4,0,0,1-.029-.087A.349.349,0,0,1,5,5.687a.545.545,0,0,1,.033-.169.621.621,0,0,1,.074-.141.956.956,0,0,1,.1-.118c.035-.036.072-.07.107-.1a1.9,1.9,0,0,1,.2-.131,2.233,2.233,0,0,1,.206-.1c.07-.031.141-.059.212-.084s.144-.049.216-.071L6.122,4.74A.282.282,0,0,1,6.1,4.714a.258.258,0,0,1-.014-.027.247.247,0,0,1-.011-.029.4.4,0,0,1-.024-.089.46.46,0,0,1,.01-.184A.389.389,0,0,1,6.1,4.3a.777.777,0,0,1,.092-.137.854.854,0,0,1,.111-.11,1.08,1.08,0,0,1,.124-.088c.043-.026.087-.049.13-.071s.088-.041.133-.059.09-.034.137-.05.093-.03.141-.043l.145-.038L7.2,3.689l.09-.018.09-.016.091-.014c-.009-.013-.018-.026-.026-.04a.421.421,0,0,1-.022-.042.379.379,0,0,1-.017-.046.391.391,0,0,1-.011-.05.4.4,0,0,1,0-.11.422.422,0,0,1,.024-.1.464.464,0,0,1,.046-.09.491.491,0,0,1,.061-.076.9.9,0,0,1,.143-.118,1.082,1.082,0,0,1,.159-.087,1.4,1.4,0,0,1,.167-.062c.056-.017.112-.031.167-.042s.114-.022.171-.03.114-.015.17-.02.113-.009.169-.012l.167-.005.112,0,.114,0h.115l.114,0a.173.173,0,0,1-.012-.02.226.226,0,0,1-.01-.021l-.008-.022-.007-.022-.009-.029c0-.01-.005-.019-.008-.028s0-.018-.005-.027a.16.16,0,0,1,0-.025l-.2-.059-.188-.06L8.67,2.333,8.5,2.277c-.193-.05.009-.1.468-.137s1.177-.07,2.016-.088,1.8-.023,2.746-.009S15.612,2.087,16.392,2.142Z" transform="translate(774.138 63.788)"/><path class="a" d="M70.261,134.5c-.112-3.512-2.545-7.156-3.7-8.7.458.01.8.02.987.02,0,0,.092-.031.081-.092s-.142-.132-.611-.214a1.547,1.547,0,0,0,.631-.824c.692-1.751.55-2.819,1.323-3.552A2.3,2.3,0,0,0,66.76,122.6c-.529,1.089-.183,1.435-.692,1.791a.687.687,0,0,0-.692-.417,3.846,3.846,0,0,0-.509-1.16,3.744,3.744,0,0,0-2.494-1.71c.774.733.56,1.853,1.293,3.176a1.92,1.92,0,0,0,.651.723c-2.209-.448-5.018-1.038-5.191-1.069a3.931,3.931,0,0,0-.824-.621c-1.394-.794-2.575.173-3.227.936-1.567,1.374-2.844,1.293-5.633,1.262a45.157,45.157,0,0,0-6.764,1.782c-.012.008-.1.042-.162.079-.176.108-.377.151-.551.277a10.842,10.842,0,0,1-4.092,1.578q-.244.015-.58.061c-.031,0-.061.01-.092.01a7.035,7.035,0,0,0-1.12.224,3.029,3.029,0,0,0-.529.214,1.12,1.12,0,0,0-.4.326c-.01.02-.031.041-.041.061h0a.36.36,0,0,0,.041.254.519.519,0,0,0,.193.173,1.1,1.1,0,0,0,.438.1.442.442,0,0,0-.041.071.2.2,0,0,0,0,.153.221.221,0,0,0,.1.112.527.527,0,0,0,.132.061,1.635,1.635,0,0,0,.448.051c-.01.02-.02.031-.02.051a.2.2,0,0,0,.031.153.309.309,0,0,0,.244.1,1.252,1.252,0,0,0,.4-.081v.061a.175.175,0,0,0,.1.122.427.427,0,0,0,.275.02.987.987,0,0,0,.244-.081c.051-.02.092-.051.142-.071a.192.192,0,0,0,.02.081.2.2,0,0,0,.153.1.518.518,0,0,0,.305-.061,1.53,1.53,0,0,0,.254-.153c.051-.041.1-.081.163-.122a.077.077,0,0,0,.01.041.16.16,0,0,0,.1.112.313.313,0,0,0,.254-.01,1.13,1.13,0,0,0,.305-.173v.01a.165.165,0,0,0,.071.143.259.259,0,0,0,.143.031.506.506,0,0,0,.132-.031,1.066,1.066,0,0,0,.234-.132l.214-.153a5.677,5.677,0,0,1,.723-.407c.356.092.774.163,1.211.234a1.382,1.382,0,0,0,.031.3c-.7.824-1.751,2.005-2.494,2.748a4.17,4.17,0,0,0-1.14.9l-.01.01c-.7.5-1.69,1.171-2.484,1.669a.6.6,0,0,1-.081.041c-.061.031-.112.061-.153.081a.111.111,0,0,0-.051.01,3.007,3.007,0,0,1-.692.01,2.506,2.506,0,0,0,.417.132.036.036,0,0,0-.02.01,2.555,2.555,0,0,1-.417.071c-.092,0-.2-.01-.336-.02h-.02a2.461,2.461,0,0,1-.356-.122.9.9,0,0,0,.631.275V137a2.243,2.243,0,0,1-1.13.031c-.061-.01.112.2.6.234a2.3,2.3,0,0,0,.539-.01,1.028,1.028,0,0,1-.153.071.593.593,0,0,1-.132-.02c-.02,0-.01.02.02.051-.254.071-.458.041-.458.081a.926.926,0,0,0,.662.031,1.549,1.549,0,0,0,.377.071,2.292,2.292,0,0,0,.539-.01,2.257,2.257,0,0,1-.723.183,1.082,1.082,0,0,0,.9-.061,1.6,1.6,0,0,0,.6-.407c.519-.316,2.178-1.333,3.166-1.985a1.444,1.444,0,0,0,.875-.621.214.214,0,0,0,.041-.061c.519-.5,1.914-1.873,2.84-2.789a5.877,5.877,0,0,0,1.578-.529c.01-.01.02-.01.031-.02a5.8,5.8,0,0,0,4.886-2.015,14.77,14.77,0,0,1,3.094-2.26,9.834,9.834,0,0,1,2.565-.987h.031c.794-.031.906-.092,2.29-.153a2.083,2.083,0,0,0,1.038-.316h.01s2.667.122,5.038.2c-1.13,1.5-3.644,5.211-3.766,8.784-.142,4.194,1.832,5.9,4.937,5.9C68.378,140.4,70.4,138.69,70.261,134.5Zm-29.732-.285a4.171,4.171,0,0,0-1.14.9l-.01.01c-.7.5-1.69,1.171-2.484,1.669a.6.6,0,0,1-.081.041c-.061.031-.112.061-.153.081a.111.111,0,0,0-.051.01,3.009,3.009,0,0,1-.692.01,2.508,2.508,0,0,0,.417.132.036.036,0,0,0-.02.01,2.555,2.555,0,0,1-.417.071c-.092,0-.183-.01-.305-.02.092-.071.143-.132.163-.143.519-.316,2.178-1.333,3.166-1.985a1.444,1.444,0,0,0,.875-.621.213.213,0,0,0,.041-.061c.519-.5,1.914-1.873,2.84-2.789a1.615,1.615,0,0,0,.346-.071v.02C42.321,132.278,41.272,133.458,40.529,134.211Zm-5.323,3.135a1.5,1.5,0,0,0,.285-.163.807.807,0,0,0,.326.071v.01A1.3,1.3,0,0,1,35.206,137.346Zm29.945-8.55c-1.944,0-.967-2.117-.438-3.064.1,0,.2.01.316.01a.98.98,0,0,0,.539.02,1.508,1.508,0,0,1,.214.01C66.251,126.74,67.065,128.8,65.151,128.8Z" transform="translate(739.57 -61.349)"/></g></svg>