<svg xmlns="http://www.w3.org/2000/svg" width="195.305" height="152.929" viewBox="0 0 195.305 152.929"><defs><style>.a{fill:#423f38;}</style></defs><path class="a" d="M225,191.377c-.587-18.423-13.35-37.541-19.438-45.658,2.4.053,4.219.107,5.18.107,0,0,.481-.16.427-.481-.053-.267-.748-.694-3.2-1.121a8.116,8.116,0,0,0,3.311-4.325c3.631-9.185,2.884-14.792,6.942-18.637,0,0-7.423-.854-11.588,7.69-2.777,5.714-.961,7.53-3.631,9.4a3.6,3.6,0,0,0-3.631-2.189,20.176,20.176,0,0,0-2.67-6.088,19.643,19.643,0,0,0-13.083-8.971c4.058,3.845,2.937,9.719,6.782,16.661a10.075,10.075,0,0,0,3.418,3.791c-11.588-2.35-26.327-5.447-27.234-5.607a20.623,20.623,0,0,0-4.325-3.257c-7.316-4.165-13.51.908-16.928,4.913-8.224,7.209-14.151,6.622-28.783,6.462.374-5.233-1.175-11.481-6.729-18.53C97,109.193,95.987,105.348,92.516,92.585s.854-21.574-3.524-23.069a1.74,1.74,0,0,0-2.029.694,8.149,8.149,0,0,0-.587.854,11.363,11.363,0,0,0-.908,3.257,36.83,36.83,0,0,0-.374,5.927,3.572,3.572,0,0,0-1.121-1.068,1.985,1.985,0,0,0-1.228-.267,3.117,3.117,0,0,0-1.175.427,2.017,2.017,0,0,0-.854.908,4.825,4.825,0,0,0-.427,1.121,10.821,10.821,0,0,0-.32,2.3,31.968,31.968,0,0,0,.16,4.539c.16,1.388.32,2.723.587,4.058a4.645,4.645,0,0,0-2.4,1.442,6.2,6.2,0,0,0-1.228,2.937,13.944,13.944,0,0,0,.534,5.18,4.122,4.122,0,0,0-.8-.107,2.44,2.44,0,0,0-1.762.587,2.871,2.871,0,0,0-.908,1.6,9.126,9.126,0,0,0-.16,1.655,20.767,20.767,0,0,0,1.068,5.18,2.19,2.19,0,0,0-.587-.053,2.159,2.159,0,0,0-1.6.908,3.894,3.894,0,0,0-.214,3.257,12.35,12.35,0,0,0,2.456,4.219,1.645,1.645,0,0,0-.641.267,2.153,2.153,0,0,0-.961,1.6,3.836,3.836,0,0,0,.214,1.922c-9.666-.748-14.044-2.617-22.909-6.355-12.175-5.18-16.394-14.044-20.292-11.535A1.711,1.711,0,0,0,29.823,107a5.075,5.075,0,0,0,.32.961,11.113,11.113,0,0,0,1.976,2.723A38.5,38.5,0,0,0,36.5,114.64a3.889,3.889,0,0,0-1.549.214,2.007,2.007,0,0,0-.961.8,3.117,3.117,0,0,0-.427,1.175,2.453,2.453,0,0,0,.16,1.228,6.291,6.291,0,0,0,.587,1.015,9.436,9.436,0,0,0,1.6,1.655,28.815,28.815,0,0,0,3.631,2.67,34.068,34.068,0,0,0,3.578,2.029,4.173,4.173,0,0,0-.32,2.777,5.959,5.959,0,0,0,1.549,2.777,12.919,12.919,0,0,0,4.432,2.777,6.092,6.092,0,0,0-.587.587,2.467,2.467,0,0,0-.641,1.762,2.736,2.736,0,0,0,.694,1.709,8.459,8.459,0,0,0,1.228,1.175,20.93,20.93,0,0,0,4.753,2.4,1.439,1.439,0,0,0-.374.427,1.993,1.993,0,0,0-.267,1.816,4.012,4.012,0,0,0,2.4,2.189,13.626,13.626,0,0,0,4.806.694,1.422,1.422,0,0,0-.16.641,2.332,2.332,0,0,0,.641,1.762,5.1,5.1,0,0,0,2.937,1.335,14.907,14.907,0,0,0,3.1.107c.641-.053,1.282-.107,1.922-.214a2.133,2.133,0,0,0-.107,1.015,2.324,2.324,0,0,0,1.228,1.709,6.421,6.421,0,0,0,3.685.587,18.723,18.723,0,0,0,3.524-.694c.748-.214,1.549-.427,2.3-.694a1.478,1.478,0,0,0-.053.481,2,2,0,0,0,.053.587c-1.228.8-2.35,1.6-3.311,2.3-3.578,2.189-13.19,7.583-21.467,8.277q-1.282.08-3.044.32c-.16,0-.32.053-.481.053a36.907,36.907,0,0,0-5.874,1.175,15.89,15.89,0,0,0-2.777,1.121,5.879,5.879,0,0,0-2.083,1.709c-.053.107-.16.214-.214.32h0a1.889,1.889,0,0,0,.214,1.335,2.722,2.722,0,0,0,1.015.908,5.775,5.775,0,0,0,2.3.534,2.322,2.322,0,0,0-.214.374,1.039,1.039,0,0,0,0,.8,1.158,1.158,0,0,0,.534.587,2.762,2.762,0,0,0,.694.32,8.58,8.58,0,0,0,2.35.267c-.053.107-.107.16-.107.267a1.053,1.053,0,0,0,.16.8,1.621,1.621,0,0,0,1.282.534,6.571,6.571,0,0,0,2.083-.427v.32a.92.92,0,0,0,.534.641,2.24,2.24,0,0,0,1.442.107,5.168,5.168,0,0,0,1.282-.427c.267-.107.481-.267.748-.374a1.006,1.006,0,0,0,.107.427,1.051,1.051,0,0,0,.8.534,2.717,2.717,0,0,0,1.6-.32,8.03,8.03,0,0,0,1.335-.8c.267-.214.534-.427.854-.641a.4.4,0,0,0,.053.214.84.84,0,0,0,.534.587,1.642,1.642,0,0,0,1.335-.053,5.921,5.921,0,0,0,1.6-.908v.053a.866.866,0,0,0,.374.748,1.358,1.358,0,0,0,.748.16,2.65,2.65,0,0,0,.694-.16,5.586,5.586,0,0,0,1.228-.694l1.121-.8a29.77,29.77,0,0,1,3.791-2.136c1.869.481,4.058.854,6.355,1.228a7.249,7.249,0,0,0,.16,1.549c-3.685,4.325-9.185,10.52-13.083,14.418a21.878,21.878,0,0,0-5.981,4.7l-.053.053c-3.685,2.617-8.865,6.141-13.03,8.758a3.169,3.169,0,0,1-.427.214c-.32.16-.587.32-.8.427a.581.581,0,0,0-.267.053,15.773,15.773,0,0,1-3.631.053,13.143,13.143,0,0,0,2.189.694.186.186,0,0,0-.107.053,13.417,13.417,0,0,1-2.189.374c-.481,0-1.068-.053-1.762-.107h-.107a12.9,12.9,0,0,1-1.869-.641c-.32-.107,1.335,1.388,3.311,1.442v.053c-1.228.534-2.83.534-5.927.16-.32-.053.587,1.068,3.151,1.228a12.032,12.032,0,0,0,2.83-.053,5.391,5.391,0,0,1-.8.374,3.125,3.125,0,0,1-.694-.107c-.107,0-.053.107.107.267-1.335.374-2.4.214-2.4.427s1.6.587,3.471.16a8.127,8.127,0,0,0,1.976.374,12.032,12.032,0,0,0,2.83-.053c-1.922,1.068-3.738.748-3.791.961s2.456.8,4.7-.32a8.4,8.4,0,0,0,3.151-2.136c2.723-1.655,11.428-7,16.608-10.413a7.575,7.575,0,0,0,4.592-3.257,1.117,1.117,0,0,0,.214-.32c2.723-2.617,10.039-9.826,14.9-14.632A30.83,30.83,0,0,0,93,174.4c.053-.053.107-.053.16-.107,16.821.481,21.788-7.53,25.632-10.573,5.233-4.165,7.636-7.369,16.234-11.855,7.636-3.952,12.5-5.02,13.457-5.18h.16c4.165-.16,4.753-.481,12.015-.8a10.926,10.926,0,0,0,5.447-1.655h.053s13.991.641,26.433,1.068c-5.927,7.85-19.117,27.341-19.758,46.085-.748,22,9.612,30.972,25.9,30.972C215.124,222.349,225.751,213.378,225,191.377Zm-155.984-1.5a21.878,21.878,0,0,0-5.981,4.7l-.053.053c-3.685,2.617-8.865,6.141-13.03,8.758a3.171,3.171,0,0,1-.427.214c-.32.16-.587.32-.8.427a.581.581,0,0,0-.267.053,15.774,15.774,0,0,1-3.631.053,13.145,13.145,0,0,0,2.189.694.186.186,0,0,0-.107.053,13.421,13.421,0,0,1-2.189.374c-.481,0-.961-.053-1.6-.107.481-.374.748-.694.854-.748,2.723-1.655,11.428-7,16.608-10.413a7.575,7.575,0,0,0,4.592-3.257,1.117,1.117,0,0,0,.214-.32c2.723-2.617,10.039-9.826,14.9-14.632a8.461,8.461,0,0,0,1.816-.374v.107C78.418,179.736,72.918,185.93,69.02,189.882ZM41.091,206.329a7.859,7.859,0,0,0,1.5-.854,4.235,4.235,0,0,0,1.709.374v.053A6.829,6.829,0,0,1,41.091,206.329ZM198.2,161.472c-10.2,0-5.073-11.107-2.3-16.074.534,0,1.068.053,1.655.053a5.143,5.143,0,0,0,2.83.107,7.888,7.888,0,0,1,1.121.053C203.963,150.685,208.235,161.472,198.2,161.472Z" transform="translate(-29.736 -69.42)"/></svg>